# xmcd CD database file
#
# Track frame offsets:
#	150
#	10930
#	21442
#	32244
#	44746
#	56494
#	67842
#	80342
#	93520
#	106322
#	117809
#	129355
#	140345
#	152222
#	164121
#	176369
#	187365
#	199378
#	210080
#	219561
#	229491
#	240681
#	251397
#
# Disc length: 3493 seconds
#
# Revision: 0
# Processed by: cddbd v1.5.2PL0 Copyright (c) Steve Scherf et al.
# Submitted via: CDex 1.70beta2
#
DISCID=4b0da317
DTITLE=George Jones - Honky Tonk Masterpieces
DYEAR=2008
DGENRE=Country
TTITLE0=Treasure of Love
TTITLE1=Why Baby Why
TTITLE2=I'm Ragged But I'm Right
TTITLE3=Just One More
TTITLE4=Hearts In My Dreams
TTITLE5=Tall Tall Trees
TTITLE6=Take the Devil Out of Me
TTITLE7=Color of the Blues
TTITLE8=White Lightning
TTITLE9=Mr. Fool
TTITLE10=Everything Ain't Right
TTITLE11=Relief is Just a Swallow Away
TTITLE12=Revenooer Man
TTITLE13=You Better Treat You Man Right
TTITLE14=Out of Control
TTITLE15=Glad to Let Her Go
TTITLE16=You're Still On My Mind
TTITLE17=Tarnished Angel
TTITLE18=Watcha Gonna Do
TTITLE19=If You Got the Money (I Got the Time)
TTITLE20=Accidentally on Purpose
TTITLE21=Talk To Me Lonesome Heart
TTITLE22=Who Shot Sam
EXTD=YEAR: 2008
EXTT0=
EXTT1=
EXTT2=
EXTT3=
EXTT4=
EXTT5=
EXTT6=
EXTT7=
EXTT8=
EXTT9=
EXTT10=
EXTT11=
EXTT12=
EXTT13=
EXTT14=
EXTT15=
EXTT16=
EXTT17=
EXTT18=
EXTT19=
EXTT20=
EXTT21=
EXTT22=
PLAYORDER=
